<svg xmlns="http://www.w3.org/2000/svg" width="22" height="14" viewBox="0 0 22 14"><g><g opacity=".2"><path fill="#062033" d="M14.603 1.346h5.321v1.359h-5.32zm7.34 8.048h-6.928c.074 1.68.89 2.3 2.357 2.3 1.06 0 1.915-.339 2.082-.937h2.113c-.742 2.278-2.113 2.933-4.287 2.933-3.027 0-4.903-2.09-4.903-5.076 0-2.894 1.988-5.096 4.903-5.096 3.269 0 4.848 2.909 4.662 5.876zM15.014 7.42h4.29c-.241-1.343-.818-1.905-2.1-1.905-1.67 0-2.154 1.16-2.19 1.905zm-3.33 2.143c0 2.707-2.286 3.866-4.682 3.866H.577V.018h6.242c2.525 0 4.234.905 4.234 3.387 0 1.308-.65 2.222-1.803 2.782 1.618.467 2.435 1.717 2.435 3.377zm-5.712-7.29h-2.73V5.39h2.953c1.021 0 1.783-.467 1.783-1.585 0-1.27-.966-1.532-2.006-1.532zm.445 5.113H3.243v3.66h3.12c1.151 0 2.154-.373 2.154-1.755 0-1.362-.854-1.905-2.099-1.905z"/></g></g></svg>