<svg xmlns="http://www.w3.org/2000/svg" width="22" height="22" viewBox="0 0 22 22"><g><g opacity=".2"><path fill="#062033" d="M21.937 11.432a10.715 10.715 0 0 1-.84 4.158 10.65 10.65 0 0 1-2.289 3.394 10.787 10.787 0 0 1-3.394 2.288 10.665 10.665 0 0 1-4.157.84 10.65 10.65 0 0 1-5.973-1.825 10.79 10.79 0 0 1-1.58-1.303 10.646 10.646 0 0 1-3.128-7.552 10.656 10.656 0 0 1 3.128-7.55A10.684 10.684 0 0 1 9.105.972a10.737 10.737 0 0 1 6.309.622 10.648 10.648 0 0 1 3.394 2.288 10.622 10.622 0 0 1 3.128 7.55zM18.3 5.64c-.017.025-1.48 2.14-5.081 3.61a27.828 27.828 0 0 1 .802 1.793c3.135-.394 6.222.27 6.354.299A9.078 9.078 0 0 0 18.3 5.64zm-7.043-3.327c-.742 0-1.46.09-2.15.258a46.28 46.28 0 0 1 3.41 5.32c3.442-1.29 4.741-3.267 4.764-3.303a9.085 9.085 0 0 0-6.024-2.275zm-2.214.272a.56.56 0 0 0 .027-.006l.002-.001-.03.007zM2.33 9.553c.241.004 4.042.05 8.422-1.114a54.91 54.91 0 0 0-3.387-5.254A9.133 9.133 0 0 0 2.33 9.553zm2.142 7.974c0-.002-.004-.004-.004-.004s2.497-4.429 7.42-6.02c.119-.038.238-.074.359-.108a29.88 29.88 0 0 0-.74-1.55c-4.696 1.405-9.203 1.302-9.364 1.3-.004.095-.008.19-.008.287 0 2.343.885 4.48 2.337 6.095zm10.345 2.304c-.135-.798-.665-3.59-1.948-6.925a.728.728 0 0 0-.06.02c-5.41 1.883-7.159 5.696-7.159 5.696s-.084-.062-.204-.16a9.086 9.086 0 0 0 5.81 2.09 9.084 9.084 0 0 0 3.561-.721zm5.445-6.95c-.188-.062-2.74-.87-5.684-.399 1.196 3.288 1.682 5.964 1.775 6.515a9.123 9.123 0 0 0 3.909-6.116z"/></g></g></svg>