<svg xmlns="http://www.w3.org/2000/svg" width="20" height="14" viewBox="0 0 20 14"><g><g><path fill="#4c76ff" d="M2.63 1.42c-.166 0-.391-.008-.575.027l8.071 6.508 8.105-6.535h-.009zm-.9 10.01c0 .336.57.91.9.91h15.593c.33 0 .3-.574.3-.91V2.74l-8.004 6.476a.594.594 0 0 1-.785 0L1.73 2.739zM18.224.208c.82 0 1.308.349 1.453 1.037.04.1.054.207.04.311.004.055.006.11.006.168v9.708c0 1.005-.506 2.123-1.5 2.123H2.63c-.993 0-2.099-1.118-2.099-2.123V1.723c0-.05.003-.099.008-.147A.611.611 0 0 1 .763.998C1.139.473 1.913.207 2.63.207z"/></g></g></svg>