<svg xmlns="http://www.w3.org/2000/svg" width="19" height="22" viewBox="0 0 19 22"><g><g opacity=".2"><path fill="#062033" d="M18.52 21.596a.478.478 0 0 1-.402.222h-7.384v-4.006l3.278-2.002a.661.661 0 0 0 .656-.667.661.661 0 0 0-.656-.667l-3.278 2.002v-2.336l1.967-1.001a.662.662 0 0 0 .656-.668.662.662 0 0 0-.656-.667l-1.967 1.001v-1a.662.662 0 0 0-.655-.668H8.768a.662.662 0 0 0-.656.667v4.227l-2.622-.89a.661.661 0 0 0-.656.667c0 .369.294.668.656.668l2.622.89v4.45H.728a.48.48 0 0 1-.402-.222.501.501 0 0 1-.039-.465L8.997.754a.48.48 0 0 1 .44-.294.48.48 0 0 1 .442.294l8.68 20.378a.501.501 0 0 1-.039.464z"/></g></g></svg>