<svg xmlns="http://www.w3.org/2000/svg" width="22" height="19" viewBox="0 0 22 19"><g><g opacity=".2"><path fill="#062033" d="M18.599 5.108v3.257h-1.335V5.108h-3.338V3.777h3.338V.52h1.335v3.257h3.337v1.331zM9.368 1.811c1.184.655 1.878 1.72 1.878 3.111 0 1.17-.722 2.09-1.653 2.806-.91.697-1.082.99-1.082 1.582 0 .505.974 1.367 1.483 1.72 1.488 1.035 1.928 1.994 1.928 3.595 0 1.999-1.928 4.23-5.494 4.23-3.129 0-5.852-1.496-5.852-3.494 0-2.029 2.492-3.987 5.62-3.987.34 0 .653-.013.976-.013-.428-.409-.766-.918-.766-1.536 0-.367.119-.735.285-1.049-.17.012-.343-.015-.522-.015-2.57 0-4.291-1.857-4.291-4.081C1.878 2.503 4.255.5 6.781.5h5.634l-1.261 1.31zM6.792 11.892c-2.163-.022-4.1 1.295-4.1 2.877 0 1.615 1.562 2.795 3.724 2.795 3.04 0 4.1-1.098 4.1-2.712 0-.194-.025-.385-.07-.571-.237-.913-1.079-1.366-2.253-2.168a4.789 4.789 0 0 0-1.401-.22zm2.43-6.945c-.252-1.87-1.694-3.373-3.145-3.415-1.451-.043-2.425 1.39-2.174 3.26.25 1.872 1.63 3.425 3.082 3.467 1.45.043 2.486-1.44 2.236-3.312z"/></g></g></svg>