<svg xmlns="http://www.w3.org/2000/svg" width="21" height="18" viewBox="0 0 21 18"><g><g opacity=".2"><path fill="#062033" d="M14.105.052c1.697-.03 2.6.588 3.464 1.375.732-.063 1.684-.472 2.245-.757l.545-.298c-.32.865-.755 1.542-1.422 2.056-.148.115-.295.269-.481.341v.011c.95-.01 1.735-.439 2.48-.671v.01c-.391.622-.92 1.253-1.486 1.706l-.684.543c.012 1.007-.015 1.967-.203 2.814-1.095 4.917-3.994 8.256-8.585 9.686-1.648.514-4.312.725-6.2.256-.937-.233-1.783-.495-2.577-.842-.44-.193-.85-.401-1.24-.639l-.385-.235c.426.013.924.13 1.4.054.432-.07.854-.051 1.252-.139.99-.217 1.871-.505 2.63-.949.367-.214.925-.467 1.186-.777a3.724 3.724 0 0 1-1.304-.235c-1.418-.5-2.243-1.42-2.78-2.802.43.046 1.667.159 1.957-.086-.541-.03-1.061-.343-1.433-.575-1.14-.714-2.07-1.91-2.063-3.751.15.07.3.142.449.213.286.12.578.185.92.256.144.03.432.115.598.053h-.022c-.22-.257-.58-.428-.801-.703C.833 5.057.147 3.658.58 1.992c.11-.423.285-.796.47-1.14l.022.01c.085.178.275.309.396.458.373.463.834.88 1.304 1.247 1.6 1.251 3.041 2.02 5.356 2.59a8.38 8.38 0 0 0 1.967.255c-.197-.573-.134-1.501.021-2.056.39-1.396 1.237-2.403 2.48-2.942.298-.128.627-.223.973-.298l.535-.064z"/></g></g></svg>