<svg xmlns="http://www.w3.org/2000/svg" width="30" height="30" viewBox="0 0 30 30"><g><g><path fill="#fff" d="M15.041 2.388c-6.916 0-12.542 5.628-12.542 12.545S8.125 27.506 15.04 27.506c6.916 0 12.542-5.656 12.542-12.573 0-6.917-5.626-12.545-12.542-12.545 0 0 6.916 0 0 0zm0-1.792c7.917 0 14.334 6.42 14.334 14.337 0 7.919-6.417 14.337-14.334 14.337C7.125 29.27.707 22.852.707 14.933.707 7.015 7.125.596 15.04.596zm0 4.48c.495 0 .896.402.896.897v8.596l4.229 4.23a.896.896 0 0 1-1.268 1.267l-4.434-4.435a.906.906 0 0 1-.066-.074.893.893 0 0 1-.253-.624v-8.96c0-.495.401-.896.896-.896z"/></g></g></svg>