<svg xmlns="http://www.w3.org/2000/svg" width="31" height="29" viewBox="0 0 31 29"><g><g><path fill="#fff" d="M6.257 7.724V4.53h-3.61c-.041.86.042 2.364.873 3.384.61.751 1.565 1.192 2.84 1.313-.067-.49-.103-.993-.103-1.504zm0-6.029c0-.523.42-.946.938-.946h16.867c.518 0 .937.423.937.946v.944h4.59a.94.94 0 0 1 .919.756c.027.137.657 3.45-1.17 5.709-1.073 1.327-2.72 2.016-4.895 2.05-1.205 3.584-4.242 6.232-7.886 6.62v6.585h2.899c.518 0 .938.424.938.946 0 .523-.42.946-.938.946h-7.581a.941.941 0 0 1-.938-.946c0-.522.42-.946.938-.946h2.807v-6.588c-3.637-.395-6.667-3.04-7.87-6.62-2.105-.062-3.702-.75-4.752-2.047C.234 6.846.863 3.532.89 3.394a.94.94 0 0 1 .919-.755h4.448zM25 7.724c0 .515-.036 1.022-.105 1.516 1.349-.1 2.351-.546 2.985-1.325.83-1.02.914-2.523.872-3.384h-3.752zM8.133 2.64v5.083c0 4.525 3.363 8.207 7.497 8.207 4.132 0 7.494-3.682 7.494-8.207V2.64zm14.125 26.476H9.072a.941.941 0 0 1-.937-.945c0-.523.419-.946.937-.946h13.186c.519 0 .938.423.938.946 0 .522-.42.945-.938.945z"/></g></g></svg>