<svg xmlns="http://www.w3.org/2000/svg" width="29" height="29" viewBox="0 0 29 29"><g><g><path fill="#fff" d="M11.698 6.956c-2.514 0-4.915 2.192-4.915 3.464v3.74c0 1.408.637 4.046 2.124 5.237a1.773 1.773 0 0 1-.264 2.94L2.916 25.44a1.49 1.49 0 0 1-.123.061 2.86 2.86 0 0 0-.445.264v1.584h18.619v-1.603a2.54 2.54 0 0 0-.41-.229 2.257 2.257 0 0 1-.163-.079l-5.582-3.089a1.775 1.775 0 0 1-.918-1.407 1.774 1.774 0 0 1 .671-1.541c1.53-1.203 1.961-3.853 1.961-5.24v-3.74c0-1.304-2.267-3.465-4.828-3.465 0 0 2.514 0 0 0zm0-1.772c3.308 0 6.601 2.76 6.601 5.236v3.74c0 1.798-.563 5.003-2.638 6.634l5.582 3.089s1.497.616 1.497 1.496v2.245c0 .826-.67 1.497-1.497 1.497H2.071c-.825 0-1.496-.67-1.496-1.497V25.38c0-.83 1.496-1.496 1.496-1.496l5.727-3.103C5.702 19.1 5.01 15.795 5.01 14.16v-3.74c0-2.476 3.38-5.236 6.688-5.236zm17.247 15.784v2.218c0 .826-.67 1.496-1.497 1.496h-2.942c-.21-.781-.373-1.364-.913-1.772h3.579v-1.575a2.57 2.57 0 0 0-.41-.23 2.237 2.237 0 0 1-.163-.078l-5.665-3.089a1.775 1.775 0 0 1-.918-1.408 1.774 1.774 0 0 1 .671-1.54c1.53-1.203 2.044-3.853 2.044-5.24V6.009c0-1.303-2.35-3.492-4.911-3.492a5.52 5.52 0 0 0-3.398 1.16c-.696-.222-1.5-.223-2.23-.268C13.472 1.913 15.67.746 17.82.746c3.308 0 6.685 2.786 6.685 5.263v3.74c0 1.797-.647 5.003-2.722 6.633l5.665 3.09s1.497.616 1.497 1.496z"/></g></g></svg>