<svg xmlns="http://www.w3.org/2000/svg" width="24" height="24" viewBox="0 0 24 24"><g><g><path fill="#fff" d="M.775 23.864l-.734.017-.013-.763c0-3.75.755-4.537 2.356-5.336.382-.19.777-.364 1.206-.693l.91 1.16c-.544.418-1.046.668-1.45.87-.96.479-1.44.749-1.516 3.268 2.61-.094 2.907-.745 3.376-1.72.183-.38.39-.81.723-1.263L6.74 20.41c-.274.455-.364.683-.527 1.02-.741 1.54-1.48 2.434-5.438 2.434zm15.69-13.416a2.998 2.998 0 0 1-2.995-2.995 2.999 2.999 0 0 1 2.995-2.995 2.999 2.999 0 0 1 2.994 2.995 2.998 2.998 0 0 1-2.994 2.995zm0-4.49c-.825 0-1.495.67-1.495 1.495 0 .824.67 1.495 1.495 1.495.824 0 1.494-.67 1.494-1.495 0-.824-.67-1.495-1.494-1.495zM9.966 23.991a.747.747 0 0 1-.727-.575l-.908-3.843-1.687-1.871c-.81-.899-1.315-1.46-1.619-1.834L.571 14.849a.745.745 0 0 1-.392-1.224l2.736-2.966a.747.747 0 0 1 .559-.252h4.153c.259-.464.563-1.072.882-1.708.825-1.647 1.76-3.63 2.7-4.728 1.129-1.316 2.337-2.185 3.806-2.734C19.035-.264 23.213.041 23.213.041a.747.747 0 0 1 .69.699c.012.196.28 4.848-.975 8.224-.527 1.42-1.064 2.38-2.537 3.69-1.046.93-3.57 2.106-5.26 3.051-.62.347-1.28.703-1.652.934v3.854a.745.745 0 0 1-.26.566l-2.767 2.752a.747.747 0 0 1-.486.18zM5.962 14.71c.159.182 2.233 2.483 3.606 4.005a.746.746 0 0 1 .172.328l.671 2.837 1.575-1.731v-3.903c0-.224.101-.437.275-.578.302-.247.99-.623 2.141-1.266 1.542-.862 4.072-2.042 4.997-2.865 1.253-1.113 1.67-1.855 2.13-3.093.879-2.367.93-5.56.906-6.936-1.3-.01-4.143.099-6.898 1.129-1.238.462-2.224 1.173-3.194 2.306-.821.958-1.752 2.932-2.5 4.425-.44.881-.822 1.642-1.15 2.177a.746.746 0 0 1-.636.356H3.81l-1.678 1.773 3.42.783a.747.747 0 0 1 .41.253z"/></g></g></svg>